<svg xmlns="http://www.w3.org/2000/svg" xmlns:xlink="http://www.w3.org/1999/xlink" version="1.1" width="256" height="256" viewBox="0 0 256 256" xml:space="preserve">

<defs>
</defs>
<g style="stroke: none; stroke-width: 0; stroke-dasharray: none; stroke-linecap: butt; stroke-linejoin: miter; stroke-miterlimit: 10; fill: none; fill-rule: nonzero; opacity: 1;" transform="translate(1.4065934065934016 1.4065934065934016) scale(2.81 2.81)" >
	<path d="M 55.373 65.011 H 2.877 C 1.84 65.011 1 65.852 1 66.888 v 0.96 c 0 3.968 3.217 7.185 7.185 7.185 h 73.63 c 3.968 0 7.185 -3.217 7.185 -7.185 v -0.96 c 0 -1.037 -0.84 -1.877 -1.877 -1.877 H 55.373 z" style="stroke: none; stroke-width: 1; stroke-dasharray: none; stroke-linecap: butt; stroke-linejoin: miter; stroke-miterlimit: 10; fill: rgb(212,214,201); fill-rule: nonzero; opacity: 1;" transform=" matrix(1 0 0 1 0 0) " stroke-linecap="round" />
	<path d="M 84.653 60.418 V 19.56 c 0 -2.537 -2.056 -4.593 -4.593 -4.593 H 9.94 c -2.537 0 -4.593 2.056 -4.593 4.593 v 40.858 c 0 2.537 2.056 4.593 4.593 4.593 h 70.12 C 82.597 65.011 84.653 62.955 84.653 60.418 z" style="stroke: none; stroke-width: 1; stroke-dasharray: none; stroke-linecap: butt; stroke-linejoin: miter; stroke-miterlimit: 10; fill: rgb(255,82,243); fill-rule: nonzero; opacity: 1;" transform=" matrix(1 0 0 1 0 0) " stroke-linecap="round" />
	<path d="M 81.815 76.033 H 8.185 C 3.672 76.033 0 72.361 0 67.849 v -0.96 c 0 -1.586 1.291 -2.877 2.877 -2.877 h 84.246 c 1.586 0 2.877 1.291 2.877 2.877 v 0.96 C 90 72.361 86.328 76.033 81.815 76.033 z M 2.877 66.012 C 2.394 66.012 2 66.405 2 66.889 v 0.96 c 0 3.41 2.774 6.185 6.185 6.185 h 73.63 c 3.41 0 6.185 -2.774 6.185 -6.185 v -0.96 c 0 -0.483 -0.394 -0.877 -0.877 -0.877 H 2.877 z" style="stroke: none; stroke-width: 1; stroke-dasharray: none; stroke-linecap: butt; stroke-linejoin: miter; stroke-miterlimit: 10; fill: rgb(0,0,0); fill-rule: nonzero; opacity: 1;" transform=" matrix(1 0 0 1 0 0) " stroke-linecap="round" />
	<path d="M 80.06 66.012 H 9.94 c -3.084 0 -5.593 -2.51 -5.593 -5.594 V 19.56 c 0 -3.084 2.509 -5.593 5.593 -5.593 h 70.12 c 3.084 0 5.594 2.509 5.594 5.593 v 40.858 C 85.653 63.502 83.144 66.012 80.06 66.012 z M 9.94 15.967 c -1.981 0 -3.593 1.612 -3.593 3.593 v 40.858 c 0 1.981 1.612 3.594 3.593 3.594 h 70.12 c 1.981 0 3.594 -1.612 3.594 -3.594 V 19.56 c 0 -1.981 -1.612 -3.593 -3.594 -3.593 H 9.94 z" style="stroke: none; stroke-width: 1; stroke-dasharray: none; stroke-linecap: butt; stroke-linejoin: miter; stroke-miterlimit: 10; fill: rgb(0,0,0); fill-rule: nonzero; opacity: 1;" transform=" matrix(1 0 0 1 0 0) " stroke-linecap="round" />
	<path d="M 46.048 22.084 h -2.096 c -0.552 0 -1 -0.448 -1 -1 s 0.448 -1 1 -1 h 2.096 c 0.553 0 1 0.448 1 1 S 46.601 22.084 46.048 22.084 z" style="stroke: none; stroke-width: 1; stroke-dasharray: none; stroke-linecap: butt; stroke-linejoin: miter; stroke-miterlimit: 10; fill: rgb(0,0,0); fill-rule: nonzero; opacity: 1;" transform=" matrix(1 0 0 1 0 0) " stroke-linecap="round" />
	<path d="M 49.714 71.022 h -9.428 c -0.552 0 -1 -0.447 -1 -1 s 0.448 -1 1 -1 h 9.428 c 0.553 0 1 0.447 1 1 S 50.267 71.022 49.714 71.022 z" style="stroke: none; stroke-width: 1; stroke-dasharray: none; stroke-linecap: butt; stroke-linejoin: miter; stroke-miterlimit: 10; fill: rgb(0,0,0); fill-rule: nonzero; opacity: 1;" transform=" matrix(1 0 0 1 0 0) " stroke-linecap="round" />
</g>
</svg>